<?xml version="1.0" encoding="utf-8"?>
<!-- Generator: Adobe Illustrator 27.5.0, SVG Export Plug-In . SVG Version: 6.00 Build 0)  -->
<svg version="1.1" id="Calque_1" xmlns="http://www.w3.org/2000/svg" xmlns:xlink="http://www.w3.org/1999/xlink" x="0px" y="0px"
	 viewBox="0 0 1024 1024" style="enable-background:new 0 0 1024 1024;" xml:space="preserve">
<style type="text/css">
	.st0{fill:#FFFFFF;}
	.st1{fill:none;stroke:#FFFFFF;stroke-width:27;stroke-miterlimit:10;}
</style>
<path class="st0" d="M852.3,840.1C843.8,699.6,748,582.7,618.4,543c78.5-36.7,133-116.4,133-208.9c0-127.2-103.2-230.4-230.4-230.4
	S290.6,206.8,290.6,334.1c0,92.4,54.5,172.2,133.1,208.9c-129.6,39.7-225.5,156.6-233.9,297.1c-0.7,10.9,8,20.2,19,20.2l0,0
	c10,0,18.3-7.8,19-17.7c9-154.1,136.9-276.2,293.3-276.2s284.3,122.1,293.4,276.2c0.6,10,8.9,17.7,19,17.7
	C844.3,860.3,852.9,851,852.3,840.1z M328.5,334.1c0-106.3,86.2-192.5,192.5-192.5s192.5,86.2,192.5,192.5S627.3,526.6,521,526.6
	S328.5,440.4,328.5,334.1z"/>
<circle class="st1" cx="519.8" cy="516.7" r="459.6"/>
</svg>
